<svg width="496" height="250" viewBox="0 0 496 250" fill="none" xmlns="http://www.w3.org/2000/svg">
<g clip-path="url(#clip0_869_299)">
<rect width="496" height="250" fill="#FFF4E8"/>
<rect y="98" width="154" height="152" fill="#1C3CFA"/>
<path d="M91.7959 216.826C91.7959 228.625 87.4239 240.059 79.425 249.18C71.426 258.301 60.2949 264.544 47.9283 266.846C35.5617 269.148 22.7248 267.366 11.6048 261.804C0.484755 256.242 -8.23033 247.244 -13.0555 236.343C-17.8807 225.442 -18.5175 213.312 -14.8574 202.021C-11.1972 190.73 -3.46657 180.976 7.01731 174.421C17.5012 167.865 30.0897 164.915 42.6378 166.071C55.186 167.228 66.9174 172.42 75.8332 180.763L37.2959 216.826H91.7959Z" fill="#F7CA45"/>
<rect x="91.7959" y="158.826" width="242" height="91" rx="45.5" fill="#EA5836"/>
<path d="M212.5 79L267.493 160.75H157.507L212.5 79Z" fill="black"/>
<path d="M212.5 1L267.493 82.75H157.507L212.5 1Z" fill="black"/>
<circle cx="485.5" cy="62.5" r="62.5" fill="#F7CA45"/>
<rect x="336" y="174" width="15" height="81" fill="black"/>
<rect x="340" width="15" height="81" fill="black"/>
<rect x="365" y="174" width="15" height="81" fill="black"/>
<rect x="369" width="15" height="81" fill="black"/>
<rect x="394" y="174" width="15" height="81" fill="black"/>
<rect x="398" width="15" height="81" fill="black"/>
<rect x="423" y="174" width="15" height="81" fill="black"/>
<rect x="427" width="15" height="81" fill="black"/>
<rect x="452" y="174" width="15" height="81" fill="black"/>
<rect x="456" width="15" height="81" fill="black"/>
<rect x="481" y="174" width="15" height="81" fill="black"/>
<rect x="485" width="15" height="81" fill="black"/>
<path d="M396.797 85.8257C396.797 117.306 364.785 142.826 325.297 142.826C285.808 142.826 494.297 274.806 494.297 243.326C494.297 211.845 212.308 1.32568 251.796 1.32568C291.285 1.32568 396.797 54.3455 396.797 85.8257Z" fill="#1C3CFA"/>
<ellipse cx="13" cy="0.5" rx="2" ry="0.5" fill="#D9D9D9"/>
<ellipse cx="50.5" cy="49" rx="50.5" ry="49" fill="#EA5836"/>
<path d="M101 49C101 42.5652 99.6938 36.1935 97.1559 30.2485C94.6181 24.3036 90.8983 18.9018 86.2089 14.3518C81.5195 9.8017 75.9525 6.19238 69.8255 3.7299C63.6986 1.26742 57.1318 -2.81273e-07 50.5 0C43.8682 2.81273e-07 37.3014 1.26742 31.1745 3.7299C25.0475 6.19238 19.4805 9.8017 14.7911 14.3518C10.1017 18.9018 6.38194 24.3036 3.84408 30.2485C1.30622 36.1935 -5.79766e-07 42.5652 0 49L50.5 49H101Z" fill="black"/>
</g>
<defs>
<clipPath id="clip0_869_299">
<rect width="496" height="250" fill="white"/>
</clipPath>
</defs>
</svg>
