<svg id="e8d8325a-90c5-4f66-9d92-9ca74bc675b1" data-name="Layer 1" xmlns="http://www.w3.org/2000/svg" viewBox="0 0 637.87 110.15"><path d="M79.66,87.26V24.35L53,87.26H40.49L14.1,24.59V87.26H0V1.81H19.28L47,67,74.36,1.81H94V87.26Z"/><path d="M100.29,71.35a16.45,16.45,0,0,1,1.39-7,17,17,0,0,1,3.73-5.25A17.89,17.89,0,0,1,111,55.56a32.09,32.09,0,0,1,7-1.93l15.06-2.29a5.15,5.15,0,0,0,3.44-1.51,4.24,4.24,0,0,0,.9-2.71,8.47,8.47,0,0,0-2.65-6.32q-2.65-2.59-8.44-2.6c-3.69,0-6.55,1-8.55,3.08a12.33,12.33,0,0,0-3.5,7.53L101.5,45.92a18.46,18.46,0,0,1,2.29-7.23,21.73,21.73,0,0,1,5.06-6.15,24.08,24.08,0,0,1,7.53-4.22,29.24,29.24,0,0,1,9.82-1.56,32.61,32.61,0,0,1,11.51,1.8,21.13,21.13,0,0,1,7.71,4.82,18.58,18.58,0,0,1,4.34,7,25,25,0,0,1,1.39,8.32V77.86a55.43,55.43,0,0,0,.3,6.44c.2,1.65.34,2.63.42,3h-13a12.44,12.44,0,0,1-.37-2.11,45.3,45.3,0,0,1-.24-5.37,20.85,20.85,0,0,1-6.5,6.33q-4.47,3-11.57,3a22.47,22.47,0,0,1-8.26-1.44,19,19,0,0,1-6.26-3.92,17.18,17.18,0,0,1-4-5.66A16.54,16.54,0,0,1,100.29,71.35Zm22.54,6.75a19.17,19.17,0,0,0,5.54-.79A12,12,0,0,0,133,74.78a12.25,12.25,0,0,0,3.19-4.64,18.76,18.76,0,0,0,1.21-7.23V60.26l-15.3,2.29A12.15,12.15,0,0,0,116.56,65a6.65,6.65,0,0,0-2.29,5.48,7.48,7.48,0,0,0,2.17,5.31C117.89,77.33,120,78.1,122.83,78.1Z"/><path d="M216.11,76.53q0,4,.24,7c.16,2,.28,3.25.36,3.74H203.33a23.43,23.43,0,0,1-.42-3.38c-.12-1.61-.18-3-.18-4.22a17.23,17.23,0,0,1-6.51,6.39A20.59,20.59,0,0,1,185.5,88.7a27.63,27.63,0,0,1-11.57-2.35,26,26,0,0,1-8.86-6.51A30.14,30.14,0,0,1,159.34,70a36,36,0,0,1-2-12.29,34.39,34.39,0,0,1,2-11.87A31,31,0,0,1,165.07,36a26.1,26.1,0,0,1,8.86-6.63A26.47,26.47,0,0,1,185.26,27a26,26,0,0,1,6.74.78,19.49,19.49,0,0,1,5,2,15.32,15.32,0,0,1,3.43,2.71,12.86,12.86,0,0,1,2.05,2.89V0h13.62Zm-44.83-18.8q0,8.43,4.27,13.56A15.28,15.28,0,0,0,193.33,75a14.51,14.51,0,0,0,4.94-3.85,18,18,0,0,0,3.19-5.91,23.91,23.91,0,0,0,1.15-7.65c0-5.62-1.43-10.07-4.28-13.32a14.14,14.14,0,0,0-11.15-4.88,14.8,14.8,0,0,0-11.39,4.94Q171.28,49.3,171.28,57.73Z"/><path d="M278.73,70.5a27,27,0,0,1-3.49,7.24,24.73,24.73,0,0,1-5.66,5.9,27,27,0,0,1-7.72,4,30.44,30.44,0,0,1-9.64,1.44A31.24,31.24,0,0,1,240.77,87a27.7,27.7,0,0,1-9.52-6.14,30.28,30.28,0,0,1-6.57-9.88,34.09,34.09,0,0,1-2.47-13.32A32.9,32.9,0,0,1,224.56,45a30.19,30.19,0,0,1,6.33-9.7A28.75,28.75,0,0,1,240.05,29a27,27,0,0,1,10.72-2.22,32,32,0,0,1,12.12,2.17,24.8,24.8,0,0,1,9,6.14,26.82,26.82,0,0,1,5.6,9.58,38.49,38.49,0,0,1,1.93,12.6c0,1.12,0,2.11-.12,3a6.65,6.65,0,0,1-.24,1.51H236.19a15.27,15.27,0,0,0,1.45,6.14A15.93,15.93,0,0,0,252.22,77q6.39,0,9.82-3a16.27,16.27,0,0,0,4.89-7.29Zm-13.37-19a15.42,15.42,0,0,0-1-4.88,11.74,11.74,0,0,0-2.71-4.16,13.33,13.33,0,0,0-4.46-2.89,16.53,16.53,0,0,0-6.26-1.08,14.4,14.4,0,0,0-5.85,1.14,14,14,0,0,0-4.4,3,15.37,15.37,0,0,0-2.89,4.22,12.52,12.52,0,0,0-1.2,4.64Z"/><path d="M326.33,53.87V87.26H311.87V1.81h31.7a29.87,29.87,0,0,1,11.15,2,26.71,26.71,0,0,1,8.62,5.42,23.17,23.17,0,0,1,5.54,8.26,27.74,27.74,0,0,1,1.92,10.36,27.65,27.65,0,0,1-1.92,10.43,24,24,0,0,1-5.54,8.25,25.42,25.42,0,0,1-8.62,5.42,30.7,30.7,0,0,1-11.15,1.93ZM341.4,41.1q6.87,0,10.79-3.5T356.1,28a12.63,12.63,0,0,0-3.91-9.76q-3.92-3.61-10.79-3.62H326.33V41.1Z"/><path d="M424.92,70.5a27.65,27.65,0,0,1-3.49,7.24,24.77,24.77,0,0,1-5.67,5.9,27,27,0,0,1-7.72,4,30.44,30.44,0,0,1-9.64,1.44A31.19,31.19,0,0,1,387,87a27.74,27.74,0,0,1-9.53-6.14,30.1,30.1,0,0,1-6.56-9.88,33.91,33.91,0,0,1-2.47-13.32A32.71,32.71,0,0,1,370.75,45a30,30,0,0,1,6.32-9.7A28.75,28.75,0,0,1,386.23,29,27,27,0,0,1,397,26.76a32,32,0,0,1,12.11,2.17,24.72,24.72,0,0,1,9,6.14,27,27,0,0,1,5.61,9.58,38.76,38.76,0,0,1,1.92,12.6c0,1.12,0,2.11-.11,3a6.41,6.41,0,0,1-.25,1.51h-42.9a15.43,15.43,0,0,0,1.44,6.14,16,16,0,0,0,8.5,8A16.12,16.12,0,0,0,398.4,77q6.39,0,9.83-3a16.25,16.25,0,0,0,4.88-7.29Zm-13.38-19a15.69,15.69,0,0,0-1-4.88,11.77,11.77,0,0,0-2.72-4.16,13.39,13.39,0,0,0-4.45-2.89,16.59,16.59,0,0,0-6.27-1.08,14.32,14.32,0,0,0-5.84,1.14,13.91,13.91,0,0,0-4.4,3,15.41,15.41,0,0,0-2.9,4.22,12.52,12.52,0,0,0-1.2,4.64Z"/><path d="M460.94,26.76a31,31,0,0,1,12.17,2.34,29.38,29.38,0,0,1,16,16.34,32.71,32.71,0,0,1,2.29,12.41,33.17,33.17,0,0,1-2.29,12.47,29.19,29.19,0,0,1-16,16.39,32.56,32.56,0,0,1-24.29,0,28.51,28.51,0,0,1-9.64-6.51,29.84,29.84,0,0,1-6.32-9.88,33.17,33.17,0,0,1-2.29-12.47,32.71,32.71,0,0,1,2.29-12.41,30,30,0,0,1,6.32-9.82,28.68,28.68,0,0,1,9.64-6.52A31.17,31.17,0,0,1,460.94,26.76Zm0,49.77a16.15,16.15,0,0,0,6.2-1.21,15.27,15.27,0,0,0,5.24-3.55A16.77,16.77,0,0,0,476,65.92a22.76,22.76,0,0,0,1.32-8.07,22.32,22.32,0,0,0-1.32-8,16.93,16.93,0,0,0-3.62-5.78,14.56,14.56,0,0,0-5.24-3.49,17.32,17.32,0,0,0-12.41,0,13.93,13.93,0,0,0-5.18,3.49,18.06,18.06,0,0,0-3.62,5.78,21.25,21.25,0,0,0-1.39,8,21.66,21.66,0,0,0,1.39,8.07,17.87,17.87,0,0,0,3.62,5.85,14.58,14.58,0,0,0,5.18,3.55A16.09,16.09,0,0,0,460.94,76.53Z"/><path d="M496.75,110.15V28.56h13.49v8a17.64,17.64,0,0,1,7-6.57,23.47,23.47,0,0,1,11.69-2.71,27.14,27.14,0,0,1,11.57,2.35A24,24,0,0,1,549,36a28.58,28.58,0,0,1,5.24,9.7A39.05,39.05,0,0,1,556,57.85a37.47,37.47,0,0,1-1.93,12.23,29,29,0,0,1-5.54,9.76,25.58,25.58,0,0,1-8.74,6.51,27,27,0,0,1-11.39,2.35,23.75,23.75,0,0,1-11-2.35,18,18,0,0,1-6.87-5.72v29.52Zm45.31-52.3q0-8.31-4.34-13.26a14.52,14.52,0,0,0-11.45-4.94A15.07,15.07,0,0,0,519.88,41a14.61,14.61,0,0,0-4.94,3.67,17.72,17.72,0,0,0-3.25,5.73,22.17,22.17,0,0,0-1.21,7.47q0,8.43,4.46,13.44a15.4,15.4,0,0,0,22.72,0Q542.06,66.28,542.06,57.85Z"/><path d="M561.09,87.26V0h14V87.26Z"/><path d="M637.15,70.5a27.34,27.34,0,0,1-3.49,7.24,24.77,24.77,0,0,1-5.67,5.9,27.05,27.05,0,0,1-7.71,4,30.49,30.49,0,0,1-9.64,1.44A31.2,31.2,0,0,1,599.19,87a27.6,27.6,0,0,1-9.52-6.14,30,30,0,0,1-6.57-9.88,33.91,33.91,0,0,1-2.47-13.32A32.71,32.71,0,0,1,583,45a30,30,0,0,1,6.33-9.7A28.64,28.64,0,0,1,598.47,29a27,27,0,0,1,10.72-2.22,32,32,0,0,1,12.11,2.17,24.63,24.63,0,0,1,9,6.14A26.84,26.84,0,0,1,636,44.65a38.76,38.76,0,0,1,1.92,12.6c0,1.12,0,2.11-.12,3a6.65,6.65,0,0,1-.24,1.51h-42.9a15.43,15.43,0,0,0,1.44,6.14A15.93,15.93,0,0,0,610.64,77q6.38,0,9.82-3a16.25,16.25,0,0,0,4.88-7.29Zm-13.38-19a15.69,15.69,0,0,0-1-4.88A12,12,0,0,0,620,42.42a13.53,13.53,0,0,0-4.46-2.89,16.59,16.59,0,0,0-6.27-1.08,14.32,14.32,0,0,0-5.84,1.14,14,14,0,0,0-4.41,3,15.34,15.34,0,0,0-2.88,4.22A12.54,12.54,0,0,0,595,51.46Z"/></svg>