<svg width="368" height="303" viewBox="0 0 368 303" fill="none" xmlns="http://www.w3.org/2000/svg">
<path d="M63.853 92.8925C69.8243 92.8925 74.5271 93.3672 79.6851 90.8983C86.2179 87.7713 84.8487 76.117 83.6662 70.7965C81.8005 62.4018 66.3761 56.8408 57.835 55.4011C46.9075 53.559 39.6755 56.1402 33.9018 64.5346C26.8104 74.8449 24.9605 86.3513 29.3188 97.9579C30.9578 102.323 34.1508 106.125 36.3553 110.282C39.3703 115.968 41.8038 121.745 45.0583 127.353C50.9911 137.576 56.8558 148.44 59.6867 159.659C64.1568 177.376 70.8699 217.557 39.2717 219.925C31.7993 220.485 26.231 217.95 24.6896 211.31C21.5542 197.803 22.4512 184.943 30.1984 172.582C35.6735 163.846 44.173 157.52 50.8911 149.648C55.6676 144.051 61.3578 139.196 68.0194 135.25C71.5451 133.162 77.0774 129.795 78.8518 126.356C79.3506 125.389 80.9698 123.764 79.4999 125.917C76.5667 130.213 70.3311 134.277 69.6859 139.557C69.1184 144.202 67.8951 149.558 68.8989 154.315C69.5735 157.511 72.7608 163.16 76.7686 163.927C82.5152 165.027 83.7449 152.819 83.8514 149.608C84.0347 144.082 84.6847 138.531 84.6847 133.096C84.6847 130.699 83.4708 123.604 83.8514 129.507C84.3307 136.94 88.6055 144.17 90.4712 151.403C91.7954 156.537 95.2806 155.872 97.1836 151.363C98.6896 147.795 98.8502 143.336 98.8502 139.557C98.8502 131.776 99.6834 108.444 99.6834 116.225C99.6834 119.679 99.6855 124.31 100.563 127.712C101.511 131.387 103.682 134.778 104.637 138.481C105.033 140.017 106.35 148.005 106.35 142.788C106.35 141.113 106.35 139.438 106.35 137.763C106.35 135.641 107.922 133.916 108.016 131.82C108.213 127.417 110.37 121.666 111.997 117.461C113.166 114.441 115.046 107.381 119.265 106.573C126.649 105.159 122.05 128.761 127.181 131.102C136.954 135.56 133.847 113.94 133.847 109.564C133.847 104.769 134.665 97.9316 138.847 94.3284C141.967 91.6401 155.767 90.0846 151.67 91.4966C149.314 92.3086 140.513 92.4232 140.513 95.4053C140.513 96.9875 139.184 99.0361 138.893 100.79C138.549 102.867 138.847 105.157 138.847 107.251C138.847 111.78 150.329 121.374 155.929 117.621C160.649 114.458 159.678 108.064 159.678 103.621C159.678 95.5626 157.996 88.5259 155.929 80.6879C153.28 70.6454 149.679 60.9806 149.679 50.5351C149.679 46.0279 150.951 43.0002 151.67 37.4803C152.099 36.5287 154.544 30.5976 156.16 30.7524C157.777 30.9072 156.113 28.8341 155.929 29.0107C154.679 30.2075 151.48 37.33 151.346 38.8889C150.769 45.5978 149.614 52.4341 151.346 59.1502C153.41 67.1524 155.603 75.0115 158.429 82.8017C160.02 87.1885 161.191 93.5601 164.863 97.0405C165.135 97.2981 171.706 106.399 172.177 102.943C172.454 100.916 174.271 97.9934 174.862 95.7642C175.509 93.3266 175.511 91.0953 175.511 88.585C175.511 83.6127 175.511 78.6405 175.511 73.6682C175.511 72.0462 175.511 68.8023 175.511 68.8023C175.511 68.8023 175.511 73.1364 175.511 75.3034C175.511 79.3485 176.49 87.1957 180.14 90.3399C184.729 94.2936 189.753 90.7288 192.176 86.4312C195.551 80.4449 195.509 74.2549 195.509 67.7653C195.509 64.9761 195.488 69.9829 195.509 70.637C195.655 75.1718 197.489 80.4403 199.259 84.6763C201.379 89.7519 203.959 93.423 204.721 98.6758C206.089 108.106 205.508 117.774 205.508 127.313C205.508 136.195 204.525 145.972 201.758 154.554C200.714 157.792 198.82 164.632 196.91 167.556C193.712 172.455 194.736 172.109 192.176 175.613C182.606 188.708 149.679 185.128 149.679 167.556C149.679 153.133 164.899 141.841 176.344 132.578C188.984 122.347 204.576 114.765 219.674 107.57C235.847 99.8625 252.879 92.9649 270.179 87.3486C279.376 84.3626 289.086 81.4325 298.649 79.4116C300.127 79.0991 301.477 78.5341 303 78.5341" stroke="black" stroke-width="7" stroke-linecap="round" stroke-linejoin="round"/>
<path d="M122.369 197.05C128.205 195.047 134.795 190.86 135.668 184.332C136.357 179.183 132.657 174.506 127.648 173.836C120.937 172.939 116.217 200.326 115.723 204.768C115.139 210.026 114.819 221.335 116.28 226.318C120.504 240.719 121.622 241.716 124.825 249.872C132.947 264.579 135.788 265.968 144.872 269.705C151.514 269.08 153.434 266.833 155.846 263.503C157.873 260.704 158.514 257.405 158.912 254.431C159.508 249.971 160.025 246.107 160.523 242.383C161.114 237.964 161.845 233.634 160.998 229.197C160.907 228.724 159.373 224.726 159.01 226.596C157.857 232.536 158.779 239.179 161.34 244.707C162.446 247.095 163.921 248.165 165.452 250.089C166.961 251.985 169.129 252.274 170.452 253.657C174.464 257.853 177.061 243.384 177.309 241.527C177.618 239.219 177.926 236.911 178.235 234.604C178.555 232.21 176.798 231.017 176.058 229.198C174.951 226.475 171.22 222.43 168.317 222.042C162.943 221.323 166.913 225.672 169.955 223.348C172.737 221.223 174.243 220.46 175.889 217.215C177.225 214.583 176.939 211.776 178.042 209.248C178.422 208.376 178.673 212.084 179.003 212.598C180.99 215.687 182.88 219.933 184.079 223.425C185.202 226.696 186.722 230.518 187.019 233.966C187.191 235.971 188.897 241.603 189.163 239.609C189.422 237.675 188.646 234.705 188.475 232.711C188.196 229.462 188.014 226.524 188.447 223.284C188.983 219.278 188.979 214.834 191.09 211.355C192.202 209.522 195.802 202.415 198.841 206.392C202.526 211.214 201.832 219.722 203.758 225.332C204.441 227.322 204.83 229.199 206.116 230.882C207.411 232.577 210.16 225.498 210.629 224.237C212.682 218.725 213.268 213.3 212.15 207.447C211.417 203.614 212.188 197.62 215.774 195.408C216.316 195.073 220.719 193.511 219.081 194.763C216.883 196.442 214.505 197.616 212.601 199.856C206.683 206.822 209.142 222.428 219.189 223.771C225.638 224.634 225.022 209.962 225.56 205.938C226.181 201.294 223.9 196.676 224.484 192.304C224.489 192.271 224.301 193.675 224.251 194.045C223.86 196.974 225.087 200.109 226.142 202.794C228.811 209.593 232.427 216.217 236.241 222.428C243.046 233.507 244.445 249.011 242.746 261.715C242.289 265.133 242.56 269.793 237.843 268.268C230.867 266.011 233.27 245.847 233.997 240.41C235.047 232.565 235.391 224.57 236.449 216.657C237.254 210.64 239.379 203.485 238.446 197.514C237.917 194.134 239.018 188.545 235.86 186.134C232.45 183.53 232.377 189.106 233.906 191.108C239.249 198.1 247.193 179.682 247.718 175.759C247.964 173.916 247.384 178.565 247.426 179.143C247.7 182.861 248.907 187.377 250.038 190.929C251.388 195.17 251.907 200.514 255.184 203.94C255.966 204.757 256.853 206.641 258.135 205.06C260.072 202.672 262.925 201.289 264.41 198.489C267.294 193.051 269.866 186.048 270.363 179.875C270.654 176.257 265.396 170.513 261.892 170.044C258.383 169.575 258.404 180.87 259.331 183.474C260.841 187.714 266.528 195.309 271.472 195.971C272.778 196.145 275.714 197.143 276.529 195.801C279.202 191.395 279.804 185.16 280.475 180.14C281.196 174.753 283.371 165.703 279.259 160.93C275.892 157.023 280.1 171.254 281.316 176.266C281.799 178.26 279.75 168.082 280.81 169.843C282.4 172.485 290.821 177.312 294.418 181.248C297.42 182.038 299.242 186.769 302.444 186.3C303.307 186.174 303.351 182.529 303.454 181.764C304.017 177.555 303.857 173.328 304.408 169.206C304.91 165.452 306.015 161.245 305.94 157.451C305.859 153.32 304.612 150.387 300.475 149.834C296.051 149.242 300.047 155.431 301.127 157.009C302.684 159.286 307.004 159.95 309.664 159.721C311.445 159.568 324.762 157.339 325.019 156.016C325.422 153.937 326.155 150.919 325.57 148.881C324.94 146.684 323.997 145.495 323.797 143.168C323.567 140.489 315.619 133.68 314.521 137.256C311.331 147.637 315.443 156.546 320.489 165.196C322.936 169.391 326.279 172.069 331.406 172.092C339.434 172.129 343.453 159.098 344.296 152.795" stroke="black" stroke-width="7" stroke-linecap="round" stroke-linejoin="round"/>
</svg>
